<svg xmlns="http://www.w3.org/2000/svg" version="1.1" xmlns:xlink="http://www.w3.org/1999/xlink" xmlns:svgjs="http://svgjs.com/svgjs" width="1440" height="560" preserveAspectRatio="none" viewBox="0 0 1440 560"><g mask="url(&quot;#SvgjsMask1007&quot;)" fill="none"><path d="M431.95 561.75C560.53 515.6 511.87 133.32 770.05 132.45 1028.22 131.58 1267.29 364.32 1446.24 367.65" stroke="rgba(51, 105, 194, 0.71)" stroke-width="2"></path><path d="M751.34 573.04C895.06 539.72 950.73 159.78 1169.72 156.83 1388.71 153.88 1476.43 311.08 1588.1 313.63" stroke="rgba(51, 105, 194, 0.71)" stroke-width="2"></path><path d="M611.08 649.52C731.15 647.25 814.64 500.91 1064.46 490.75 1314.29 480.59 1387.12 236.86 1517.85 227.55" stroke="rgba(51, 105, 194, 0.71)" stroke-width="2"></path><path d="M496.36 626.65C614.37 617.11 693.57 380.59 900.37 379.56 1107.17 378.53 1102.38 449.56 1304.39 449.56 1506.39 449.56 1605.89 379.82 1708.4 379.56" stroke="rgba(51, 105, 194, 0.71)" stroke-width="2"></path><path d="M837.97 670.26C976.72 648.7 1053.68 315.39 1273.12 315.15 1492.56 314.91 1584.18 548.1 1708.27 555.95" stroke="rgba(51, 105, 194, 0.71)" stroke-width="2"></path></g><defs><mask id="SvgjsMask1007"><rect width="1440" height="560" fill="#ffffff"></rect></mask></defs></svg>