<svg xmlns="http://www.w3.org/2000/svg" version="1.1" xmlns:xlink="http://www.w3.org/1999/xlink" xmlns:svgjs="http://svgjs.com/svgjs" width="1440" height="560" preserveAspectRatio="none" viewBox="0 0 1440 560"><g mask="url(&quot;#SvgjsMask1001&quot;)" fill="none"><path d="M-49.62 412.79C80.06 408.36 182.92 204.45 426.26 205.59 669.6 206.73 747.27 589.64 902.14 616.76" stroke="rgba(51, 105, 194, 0.71)" stroke-width="2"></path><path d="M-148.72 202.35C-15.35 207.68 68.37 415.15 335.94 426.35 603.52 437.55 686.4 652.53 820.61 658.41" stroke="rgba(51, 105, 194, 0.71)" stroke-width="2"></path><path d="M-4.94 188.1C139.44 194.17 238.95 428.21 517.92 434.5 796.9 440.79 905.22 577.08 1040.79 578.38" stroke="rgba(51, 105, 194, 0.71)" stroke-width="2"></path><path d="M-122.18 106.23C6.23 117.31 67.92 366.79 314.28 380.63 560.64 394.47 632.17 563.05 750.74 566.89" stroke="rgba(51, 105, 194, 0.71)" stroke-width="2"></path><path d="M-286.65 151.34C-166.19 151.53-48.29 221.34 190.08 221.34 428.44 221.34 408.85 143.59 666.8 151.34 924.76 159.09 980.95 580.62 1143.53 617.02" stroke="rgba(51, 105, 194, 0.71)" stroke-width="2"></path></g><defs><mask id="SvgjsMask1001"><rect width="1440" height="560" fill="#ffffff"></rect></mask></defs></svg>